<svg xmlns="http://www.w3.org/2000/svg" xmlns:xlink="http://www.w3.org/1999/xlink" width="400" zoomAndPan="magnify" viewBox="0 0 375 374.999991" height="300" preserveAspectRatio="xMidYMid meet" version="1.0"><defs><g/><clipPath id="e090f516b5"><path d="M 106 214 L 253.402344 214 L 253.402344 266 L 106 266 Z M 106 214 " clip-rule="nonzero"/></clipPath></defs><path fill="#3f5965" d="M 184.347656 278.796875 C 186.96875 278.015625 189.523438 277.121094 192.007812 276.121094 C 149.015625 284.628906 105.828125 259.152344 93.101562 216.300781 C 80.375 173.449219 102.660156 128.527344 143.328125 112.191406 C 140.699219 112.710938 138.070312 113.351562 135.449219 114.128906 C 89.980469 127.632812 64.066406 175.441406 77.566406 220.914062 C 91.070312 266.382812 138.878906 292.296875 184.347656 278.796875 " fill-opacity="1" fill-rule="nonzero"/><path fill="#289db9" d="M 77.933594 256.996094 C 80.214844 258.785156 82.554688 260.441406 84.941406 261.976562 C 51.222656 230.035156 46.753906 177.078125 75.984375 139.796875 C 105.21875 102.515625 157.710938 94.222656 196.773438 119.351562 C 194.710938 117.398438 192.550781 115.519531 190.269531 113.734375 C 150.707031 82.714844 93.492188 89.636719 62.46875 129.199219 C 31.449219 168.757812 38.375 225.976562 77.933594 256.996094 " fill-opacity="1" fill-rule="nonzero"/><g clip-path="url(#e090f516b5)"><path fill="#289db9" d="M 162.582031 252.839844 C 139.121094 246.53125 119.824219 232.464844 106.703125 214.148438 C 117.046875 236.992188 137.15625 255.195312 163.265625 262.210938 C 197.367188 271.378906 232.183594 258.902344 253.136719 233.191406 C 228.773438 253.265625 195.390625 261.65625 162.582031 252.839844 " fill-opacity="1" fill-rule="nonzero"/></g><g fill="#3f5965" fill-opacity="1"><g transform="translate(104.789516, 205.902796)"><g><path d="M 21.703125 -37.359375 L 29.21875 -37.359375 L 24.84375 -11.5 C 24.53125 -9.132812 23.738281 -7.019531 22.46875 -5.15625 C 21.207031 -3.289062 19.582031 -1.863281 17.59375 -0.875 C 15.613281 0.113281 13.4375 0.582031 11.0625 0.53125 C 7.53125 0.46875 4.804688 -0.570312 2.890625 -2.59375 C 0.984375 -4.613281 0.078125 -7.4375 0.171875 -11.0625 L 7.75 -11.03125 C 7.488281 -7.507812 8.726562 -5.722656 11.46875 -5.671875 C 12.957031 -5.617188 14.222656 -6.113281 15.265625 -7.15625 C 16.304688 -8.195312 16.984375 -9.644531 17.296875 -11.5 Z M 21.703125 -37.359375 "/></g></g></g><g fill="#3f5965" fill-opacity="1"><g transform="translate(131.049516, 205.902796)"><g><path d="M 15.546875 0.515625 C 13.066406 0.460938 10.878906 -0.117188 8.984375 -1.234375 C 7.097656 -2.359375 5.601562 -3.976562 4.5 -6.09375 C 3.394531 -8.207031 2.757812 -10.632812 2.59375 -13.375 C 2.40625 -16.175781 2.703125 -19.164062 3.484375 -22.34375 C 4.273438 -25.53125 5.539062 -28.328125 7.28125 -30.734375 C 9.03125 -33.148438 11.078125 -34.957031 13.421875 -36.15625 C 15.773438 -37.351562 18.320312 -37.925781 21.0625 -37.875 C 23.582031 -37.820312 25.78125 -37.222656 27.65625 -36.078125 C 29.539062 -34.941406 31.019531 -33.3125 32.09375 -31.1875 C 33.175781 -29.0625 33.789062 -26.644531 33.9375 -23.9375 C 34.113281 -20.925781 33.789062 -17.828125 32.96875 -14.640625 C 32.144531 -11.460938 30.867188 -8.710938 29.140625 -6.390625 C 27.421875 -4.066406 25.398438 -2.320312 23.078125 -1.15625 C 20.765625 0.0078125 18.253906 0.566406 15.546875 0.515625 Z M 26.203125 -19.703125 L 26.40625 -22.140625 C 26.570312 -25.179688 26.160156 -27.488281 25.171875 -29.0625 C 24.191406 -30.644531 22.703125 -31.46875 20.703125 -31.53125 C 17.578125 -31.632812 15.09375 -30.25 13.25 -27.375 C 11.414062 -24.5 10.378906 -20.476562 10.140625 -15.3125 C 9.960938 -12.289062 10.359375 -9.960938 11.328125 -8.328125 C 12.304688 -6.691406 13.820312 -5.835938 15.875 -5.765625 C 18.5625 -5.648438 20.785156 -6.695312 22.546875 -8.90625 C 24.316406 -11.125 25.472656 -14.257812 26.015625 -18.3125 Z M 26.203125 -19.703125 "/></g></g></g><g fill="#3f5965" fill-opacity="1"><g transform="translate(164.030226, 205.902796)"><g><path d="M 0.53125 0 L 7.03125 -37.359375 L 18.671875 -37.328125 C 23.003906 -37.316406 26.253906 -36.4375 28.421875 -34.6875 C 30.597656 -32.945312 31.582031 -30.492188 31.375 -27.328125 C 31.132812 -23.546875 28.957031 -20.78125 24.84375 -19.03125 C 26.320312 -18.519531 27.472656 -17.554688 28.296875 -16.140625 C 29.117188 -14.734375 29.472656 -13.070312 29.359375 -11.15625 C 29.117188 -7.632812 27.734375 -4.894531 25.203125 -2.9375 C 22.679688 -0.976562 19.238281 0 14.875 0 Z M 10.90625 -16.265625 L 9.140625 -6.1875 L 15.0625 -6.15625 C 16.90625 -6.15625 18.453125 -6.613281 19.703125 -7.53125 C 20.953125 -8.445312 21.695312 -9.679688 21.9375 -11.234375 C 22.175781 -12.773438 21.96875 -13.976562 21.3125 -14.84375 C 20.65625 -15.707031 19.546875 -16.171875 17.984375 -16.234375 Z M 11.828125 -21.703125 L 16.9375 -21.65625 C 18.832031 -21.6875 20.382812 -22.128906 21.59375 -22.984375 C 22.800781 -23.835938 23.523438 -25.03125 23.765625 -26.5625 C 24.191406 -29.570312 22.609375 -31.082031 19.015625 -31.09375 L 13.46875 -31.125 Z M 11.828125 -21.703125 "/></g></g></g><g fill="#289db9" fill-opacity="1"><g transform="translate(192.533591, 204.882335)"><g><path d="M 24.578125 -2.4375 L 29.765625 2.640625 L 24.625 6.671875 L 18.09375 0.3125 C 17.113281 0.457031 16.207031 0.515625 15.375 0.484375 C 11.644531 0.453125 8.632812 -0.8125 6.34375 -3.3125 C 4.050781 -5.8125 2.773438 -9.171875 2.515625 -13.390625 C 2.359375 -15.492188 2.507812 -17.84375 2.96875 -20.4375 C 3.4375 -23.03125 4.207031 -25.410156 5.28125 -27.578125 C 6.363281 -29.753906 7.6875 -31.617188 9.25 -33.171875 C 10.8125 -34.734375 12.59375 -35.921875 14.59375 -36.734375 C 16.59375 -37.546875 18.71875 -37.925781 20.96875 -37.875 C 23.457031 -37.820312 25.644531 -37.226562 27.53125 -36.09375 C 29.414062 -34.96875 30.90625 -33.34375 32 -31.21875 C 33.09375 -29.101562 33.71875 -26.675781 33.875 -23.9375 C 33.957031 -22.445312 33.910156 -20.957031 33.734375 -19.46875 L 33.296875 -16.53125 C 32.148438 -10.164062 29.242188 -5.46875 24.578125 -2.4375 Z M 26.328125 -22.140625 C 26.441406 -25.304688 26.003906 -27.644531 25.015625 -29.15625 C 24.035156 -30.675781 22.566406 -31.46875 20.609375 -31.53125 C 17.472656 -31.632812 14.984375 -30.25 13.140625 -27.375 C 11.304688 -24.5 10.269531 -20.476562 10.03125 -15.3125 C 9.863281 -12.289062 10.265625 -9.960938 11.234375 -8.328125 C 12.210938 -6.691406 13.726562 -5.835938 15.78125 -5.765625 C 18.46875 -5.648438 20.691406 -6.695312 22.453125 -8.90625 C 24.210938 -11.125 25.367188 -14.257812 25.921875 -18.3125 C 26.140625 -19.957031 26.273438 -21.234375 26.328125 -22.140625 Z M 26.328125 -22.140625 "/></g></g></g><g fill="#289db9" fill-opacity="1"><g transform="translate(225.514807, 204.882335)"><g><path d="M 34.609375 -37.359375 L 30.40625 -12.71875 C 29.820312 -8.601562 28.109375 -5.347656 25.265625 -2.953125 C 22.429688 -0.554688 18.910156 0.601562 14.703125 0.53125 C 12.066406 0.488281 9.773438 -0.0820312 7.828125 -1.1875 C 5.890625 -2.289062 4.457031 -3.847656 3.53125 -5.859375 C 2.613281 -7.867188 2.300781 -10.148438 2.59375 -12.703125 L 6.78125 -37.359375 L 14.296875 -37.359375 L 10.109375 -12.671875 C 9.984375 -11.710938 9.972656 -10.816406 10.078125 -9.984375 C 10.421875 -7.210938 12.070312 -5.773438 15.03125 -5.671875 C 17.15625 -5.597656 18.890625 -6.175781 20.234375 -7.40625 C 21.585938 -8.644531 22.460938 -10.410156 22.859375 -12.703125 L 27.0625 -37.359375 Z M 34.609375 -37.359375 "/></g></g></g><g fill="#289db9" fill-opacity="1"><g transform="translate(256.854299, 204.882335)"><g><path d="M 25.203125 -16.1875 L 10.875 -16.1875 L 9.140625 -6.1875 L 25.96875 -6.1875 L 24.890625 0 L 0.53125 0 L 7.03125 -37.359375 L 31.328125 -37.359375 L 30.21875 -31.125 L 13.46875 -31.125 L 11.90625 -22.21875 L 26.28125 -22.21875 Z M 25.203125 -16.1875 "/></g></g></g><g fill="#289db9" fill-opacity="1"><g transform="translate(283.294275, 204.882335)"><g><path d="M 34.609375 -37.359375 L 30.40625 -12.71875 C 29.820312 -8.601562 28.109375 -5.347656 25.265625 -2.953125 C 22.429688 -0.554688 18.910156 0.601562 14.703125 0.53125 C 12.066406 0.488281 9.773438 -0.0820312 7.828125 -1.1875 C 5.890625 -2.289062 4.457031 -3.847656 3.53125 -5.859375 C 2.613281 -7.867188 2.300781 -10.148438 2.59375 -12.703125 L 6.78125 -37.359375 L 14.296875 -37.359375 L 10.109375 -12.671875 C 9.984375 -11.710938 9.972656 -10.816406 10.078125 -9.984375 C 10.421875 -7.210938 12.070312 -5.773438 15.03125 -5.671875 C 17.15625 -5.597656 18.890625 -6.175781 20.234375 -7.40625 C 21.585938 -8.644531 22.460938 -10.410156 22.859375 -12.703125 L 27.0625 -37.359375 Z M 34.609375 -37.359375 "/></g></g></g><g fill="#289db9" fill-opacity="1"><g transform="translate(314.633769, 204.882335)"><g><path d="M 25.203125 -16.1875 L 10.875 -16.1875 L 9.140625 -6.1875 L 25.96875 -6.1875 L 24.890625 0 L 0.53125 0 L 7.03125 -37.359375 L 31.328125 -37.359375 L 30.21875 -31.125 L 13.46875 -31.125 L 11.90625 -22.21875 L 26.28125 -22.21875 Z M 25.203125 -16.1875 "/></g></g></g><g fill="#289db9" fill-opacity="1"><g transform="translate(135.103707, 224.443989)"><g><path d="M 2.953125 0.21875 C 1.890625 0.21875 1.078125 -0.113281 0.515625 -0.78125 C -0.0351562 -1.457031 -0.25 -2.347656 -0.125 -3.453125 L 1.5 -3.875 C 1.476562 -3.71875 1.457031 -3.566406 1.4375 -3.421875 C 1.425781 -3.273438 1.421875 -3.140625 1.421875 -3.015625 C 1.421875 -2.421875 1.5625 -1.960938 1.84375 -1.640625 C 2.132812 -1.328125 2.578125 -1.171875 3.171875 -1.171875 C 3.554688 -1.171875 3.914062 -1.242188 4.25 -1.390625 C 4.59375 -1.535156 4.894531 -1.800781 5.15625 -2.1875 C 5.425781 -2.582031 5.644531 -3.140625 5.8125 -3.859375 L 7.5625 -12.125 L 9.3125 -12.125 L 7.546875 -3.84375 C 7.335938 -2.863281 7.050781 -2.09375 6.6875 -1.53125 C 6.332031 -0.976562 5.9375 -0.578125 5.5 -0.328125 C 5.0625 -0.0859375 4.617188 0.0625 4.171875 0.125 C 3.734375 0.1875 3.328125 0.21875 2.953125 0.21875 Z M 2.953125 0.21875 "/></g></g></g><g fill="#289db9" fill-opacity="1"><g transform="translate(144.337314, 224.443989)"><g><path d="M 5.65625 0.21875 C 4.675781 0.21875 3.835938 0 3.140625 -0.4375 C 2.453125 -0.882812 1.921875 -1.488281 1.546875 -2.25 C 1.179688 -3.019531 1 -3.890625 1 -4.859375 C 1 -5.910156 1.160156 -6.882812 1.484375 -7.78125 C 1.816406 -8.6875 2.28125 -9.476562 2.875 -10.15625 C 3.46875 -10.84375 4.1875 -11.375 5.03125 -11.75 C 5.882812 -12.132812 6.828125 -12.328125 7.859375 -12.328125 C 8.847656 -12.328125 9.6875 -12.101562 10.375 -11.65625 C 11.070312 -11.21875 11.601562 -10.613281 11.96875 -9.84375 C 12.34375 -9.082031 12.53125 -8.226562 12.53125 -7.28125 C 12.53125 -6.238281 12.363281 -5.265625 12.03125 -4.359375 C 11.695312 -3.453125 11.222656 -2.65625 10.609375 -1.96875 C 10.003906 -1.28125 9.28125 -0.742188 8.4375 -0.359375 C 7.601562 0.0234375 6.675781 0.21875 5.65625 0.21875 Z M 5.890625 -1.21875 C 6.648438 -1.21875 7.335938 -1.382812 7.953125 -1.71875 C 8.566406 -2.050781 9.082031 -2.5 9.5 -3.0625 C 9.925781 -3.632812 10.25 -4.28125 10.46875 -5 C 10.695312 -5.71875 10.8125 -6.460938 10.8125 -7.234375 C 10.8125 -8.023438 10.664062 -8.691406 10.375 -9.234375 C 10.09375 -9.773438 9.710938 -10.1875 9.234375 -10.46875 C 8.753906 -10.75 8.21875 -10.890625 7.625 -10.890625 C 6.851562 -10.890625 6.164062 -10.722656 5.5625 -10.390625 C 4.957031 -10.066406 4.441406 -9.625 4.015625 -9.0625 C 3.597656 -8.507812 3.273438 -7.875 3.046875 -7.15625 C 2.828125 -6.4375 2.71875 -5.675781 2.71875 -4.875 C 2.71875 -4.09375 2.859375 -3.425781 3.140625 -2.875 C 3.429688 -2.320312 3.8125 -1.90625 4.28125 -1.625 C 4.757812 -1.351562 5.296875 -1.21875 5.890625 -1.21875 Z M 5.890625 -1.21875 "/></g></g></g><g fill="#289db9" fill-opacity="1"><g transform="translate(157.543727, 224.443989)"><g><path d="M 0.25 0 L 2.828125 -12.125 L 7.390625 -12.125 C 8.203125 -12.125 8.867188 -11.992188 9.390625 -11.734375 C 9.921875 -11.484375 10.3125 -11.148438 10.5625 -10.734375 C 10.820312 -10.316406 10.953125 -9.867188 10.953125 -9.390625 C 10.953125 -8.816406 10.773438 -8.25 10.421875 -7.6875 C 10.078125 -7.132812 9.566406 -6.703125 8.890625 -6.390625 C 9.378906 -6.191406 9.75 -5.878906 10 -5.453125 C 10.25 -5.023438 10.375 -4.546875 10.375 -4.015625 C 10.375 -3.546875 10.273438 -3.078125 10.078125 -2.609375 C 9.878906 -2.140625 9.578125 -1.707031 9.171875 -1.3125 C 8.765625 -0.914062 8.25 -0.597656 7.625 -0.359375 C 7 -0.117188 6.269531 0 5.4375 0 Z M 3.484375 -6.9375 L 6.609375 -6.9375 C 7.160156 -6.9375 7.625 -7.039062 8 -7.25 C 8.375 -7.457031 8.65625 -7.722656 8.84375 -8.046875 C 9.039062 -8.378906 9.140625 -8.710938 9.140625 -9.046875 C 9.140625 -9.472656 8.984375 -9.847656 8.671875 -10.171875 C 8.367188 -10.503906 7.894531 -10.671875 7.25 -10.671875 L 4.265625 -10.671875 Z M 2.296875 -1.4375 L 5.59375 -1.4375 C 6.207031 -1.4375 6.726562 -1.554688 7.15625 -1.796875 C 7.582031 -2.046875 7.910156 -2.359375 8.140625 -2.734375 C 8.367188 -3.109375 8.484375 -3.484375 8.484375 -3.859375 C 8.484375 -4.316406 8.304688 -4.71875 7.953125 -5.0625 C 7.609375 -5.414062 7.0625 -5.59375 6.3125 -5.59375 L 3.1875 -5.59375 Z M 2.296875 -1.4375 "/></g></g></g><g fill="#289db9" fill-opacity="1"><g transform="translate(168.881651, 224.443989)"><g><path d="M 5.171875 0.21875 C 4.523438 0.21875 3.898438 0.113281 3.296875 -0.09375 C 2.691406 -0.300781 2.15625 -0.617188 1.6875 -1.046875 C 1.226562 -1.472656 0.882812 -2.015625 0.65625 -2.671875 L 2.296875 -3.125 C 2.535156 -2.46875 2.941406 -1.984375 3.515625 -1.671875 C 4.085938 -1.367188 4.6875 -1.21875 5.3125 -1.21875 C 5.78125 -1.21875 6.226562 -1.296875 6.65625 -1.453125 C 7.082031 -1.617188 7.425781 -1.863281 7.6875 -2.1875 C 7.957031 -2.507812 8.09375 -2.894531 8.09375 -3.34375 C 8.09375 -3.769531 7.972656 -4.113281 7.734375 -4.375 C 7.503906 -4.632812 7.191406 -4.847656 6.796875 -5.015625 C 6.410156 -5.191406 5.988281 -5.34375 5.53125 -5.46875 C 5.070312 -5.601562 4.609375 -5.75 4.140625 -5.90625 C 3.679688 -6.070312 3.253906 -6.273438 2.859375 -6.515625 C 2.472656 -6.753906 2.160156 -7.066406 1.921875 -7.453125 C 1.691406 -7.847656 1.578125 -8.359375 1.578125 -8.984375 C 1.578125 -9.734375 1.785156 -10.351562 2.203125 -10.84375 C 2.617188 -11.34375 3.15625 -11.710938 3.8125 -11.953125 C 4.46875 -12.203125 5.15625 -12.328125 5.875 -12.328125 C 6.46875 -12.328125 7.046875 -12.242188 7.609375 -12.078125 C 8.179688 -11.910156 8.691406 -11.660156 9.140625 -11.328125 C 9.597656 -10.992188 9.941406 -10.570312 10.171875 -10.0625 L 8.515625 -9.59375 C 8.296875 -10.019531 7.925781 -10.34375 7.40625 -10.5625 C 6.894531 -10.789062 6.363281 -10.90625 5.8125 -10.90625 C 5.375 -10.90625 4.960938 -10.835938 4.578125 -10.703125 C 4.203125 -10.566406 3.894531 -10.359375 3.65625 -10.078125 C 3.414062 -9.804688 3.296875 -9.457031 3.296875 -9.03125 C 3.296875 -8.632812 3.414062 -8.304688 3.65625 -8.046875 C 3.894531 -7.796875 4.207031 -7.585938 4.59375 -7.421875 C 4.988281 -7.265625 5.414062 -7.117188 5.875 -6.984375 C 6.34375 -6.847656 6.8125 -6.695312 7.28125 -6.53125 C 7.75 -6.375 8.175781 -6.171875 8.5625 -5.921875 C 8.957031 -5.679688 9.273438 -5.375 9.515625 -5 C 9.753906 -4.625 9.875 -4.148438 9.875 -3.578125 C 9.875 -2.972656 9.738281 -2.429688 9.46875 -1.953125 C 9.195312 -1.484375 8.835938 -1.085938 8.390625 -0.765625 C 7.953125 -0.453125 7.453125 -0.207031 6.890625 -0.03125 C 6.335938 0.132812 5.765625 0.21875 5.171875 0.21875 Z M 5.171875 0.21875 "/></g></g></g><g fill="#289db9" fill-opacity="1"><g transform="translate(179.929319, 224.443989)"><g><path d="M 5.8125 0 L 6.453125 -3 L 0.3125 -3 L 0.609375 -4.421875 L 8.375 -12.125 L 9.953125 -12.125 L 8.328125 -4.421875 L 10.578125 -4.421875 L 10.265625 -3 L 8.015625 -3 L 7.390625 0 Z M 2.296875 -4.421875 L 6.75 -4.421875 L 7.953125 -10.015625 Z M 2.296875 -4.421875 "/></g></g></g><g fill="#289db9" fill-opacity="1"><g transform="translate(191.466782, 224.443989)"><g><path d="M 5.1875 0.21875 C 3.832031 0.21875 2.8125 -0.0507812 2.125 -0.59375 C 1.445312 -1.144531 1.109375 -2.003906 1.109375 -3.171875 C 1.109375 -3.453125 1.128906 -3.75 1.171875 -4.0625 C 1.210938 -4.382812 1.269531 -4.722656 1.34375 -5.078125 L 2.84375 -12.125 L 4.59375 -12.125 L 3.0625 -4.9375 C 3 -4.632812 2.953125 -4.351562 2.921875 -4.09375 C 2.898438 -3.832031 2.890625 -3.59375 2.890625 -3.375 C 2.890625 -2.632812 3.078125 -2.09375 3.453125 -1.75 C 3.828125 -1.414062 4.4375 -1.25 5.28125 -1.25 C 6.019531 -1.25 6.65625 -1.359375 7.1875 -1.578125 C 7.71875 -1.796875 8.160156 -2.171875 8.515625 -2.703125 C 8.867188 -3.242188 9.148438 -3.988281 9.359375 -4.9375 L 10.90625 -12.125 L 12.640625 -12.125 L 11.140625 -5.078125 C 10.878906 -3.867188 10.53125 -2.90625 10.09375 -2.1875 C 9.664062 -1.476562 9.175781 -0.953125 8.625 -0.609375 C 8.082031 -0.265625 7.515625 -0.0390625 6.921875 0.0625 C 6.335938 0.164062 5.757812 0.21875 5.1875 0.21875 Z M 5.1875 0.21875 "/></g></g></g></svg>